<svg width="64" height="64" viewBox="0 0 64 64" fill="none" xmlns="http://www.w3.org/2000/svg">
  <!-- Background circle -->
  <circle cx="32" cy="32" r="30" fill="#F3F4F6" stroke="#E5E7EB" stroke-width="2"/>
  
  <!-- Building icon -->
  <rect x="20" y="16" width="24" height="32" fill="#6B7280" rx="2"/>
  
  <!-- Windows -->
  <rect x="24" y="20" width="3" height="3" fill="#F9FAFB"/>
  <rect x="29" y="20" width="3" height="3" fill="#F9FAFB"/>
  <rect x="34" y="20" width="3" height="3" fill="#F9FAFB"/>
  <rect x="39" y="20" width="3" height="3" fill="#F9FAFB"/>
  
  <rect x="24" y="26" width="3" height="3" fill="#F9FAFB"/>
  <rect x="29" y="26" width="3" height="3" fill="#F9FAFB"/>
  <rect x="34" y="26" width="3" height="3" fill="#F9FAFB"/>
  <rect x="39" y="26" width="3" height="3" fill="#F9FAFB"/>
  
  <rect x="24" y="32" width="3" height="3" fill="#F9FAFB"/>
  <rect x="29" y="32" width="3" height="3" fill="#F9FAFB"/>
  <rect x="34" y="32" width="3" height="3" fill="#F9FAFB"/>
  <rect x="39" y="32" width="3" height="3" fill="#F9FAFB"/>
  
  <!-- Door -->
  <rect x="30" y="38" width="4" height="10" fill="#F9FAFB"/>
</svg>
